# xmcd
#
# Track frame offsets:
#	150
#	19481
#	39022
#	56300
#	74374
#	92842
#	112308
#	127243
#	143431
#	157919
#	176712
#	194316
#	210080
#	228613
#	245904
#
# Disc length: 3507 seconds
#
# Revision: 1
# Processed by: cddbd v1.5.2PL0 Copyright (c) Steve Scherf et al.
# Submitted via: audiograbber 1.83.01
#
DISCID=d30db10f
DTITLE=The Ray Hamilton Ballroom Orchestra - Ballroom Dance Collection - Salsa
DYEAR=2002
DGENRE=Salsa
TTITLE0=Delicia (Badino) (Salsa)
TTITLE1=Siempre La Musica (Rossas and Badino) (Salsa)
TTITLE2=Flirtear (Badino) (Salsa)
TTITLE3=La Salida (Rossas) (Salsa)
TTITLE4=El Amor Es Ciego (Rossas and Badino) (Salsa)
TTITLE5=Que Suerte (Rossas and Badino) (Salsa)
TTITLE6=Por Que No (Rossas and Badino) (Salsa)
TTITLE7=Toda La Noche (Rossas and Badino) (Salsa)
TTITLE8=El Recuerdo (Rossas and Badino) (Salsa)
TTITLE9=La Lluvia (Rossas and Badino) (Salsa)
TTITLE10=Baile De Trajes (Badino) (Salsa)
TTITLE11=Con Alma Y Vida (Badino) (Salsa)
TTITLE12=El Horizonte (Badino) (Salsa)
TTITLE13=Fiesta Tirolesa (Rossas and Badino) (Salsa)
TTITLE14=El Caballo Blanco (Rossas and Badino) (Salsa)
EXTD=YEAR: 2002
EXTT0=
EXTT1=
EXTT2=
EXTT3=
EXTT4=
EXTT5=
EXTT6=
EXTT7=
EXTT8=
EXTT9=
EXTT10=
EXTT11=
EXTT12=
EXTT13=
EXTT14=
PLAYORDER=
